<svg width="20" height="20" viewBox="0 0 20 20" fill="none" xmlns="http://www.w3.org/2000/svg">
<g clip-path="url(#clip0_22_41)">
<path d="M15.802 2.39617H12.6888C12.5335 1.04952 11.3878 0 10.0001 0C8.61251 0 7.46693 1.04948 7.31163 2.39617H4.1983C2.93843 2.39617 1.91357 3.42131 1.91357 4.68114V4.79839C1.91357 5.76114 2.51304 6.58518 3.35752 6.92094V17.715C3.35752 18.9749 4.3825 20 5.64229 20H14.358C15.6179 20 16.6427 18.9748 16.6427 17.715V6.92098C17.4872 6.58518 18.0867 5.76114 18.0867 4.79843V4.68119C18.0867 3.42131 17.0618 2.39617 15.802 2.39617ZM10.0001 1.08364C10.7893 1.08364 11.4481 1.64932 11.5938 2.39617H8.40667C8.5524 1.64928 9.21119 1.08364 10.0001 1.08364ZM15.5591 17.715C15.5591 18.3774 15.0202 18.9164 14.358 18.9164H5.64225C4.98006 18.9164 4.44112 18.3774 4.44112 17.715V7.08336H15.5591V17.715ZM17.003 4.79839C17.003 5.46078 16.4641 5.99976 15.8019 5.99976H4.1983C3.53611 5.99976 2.99717 5.46078 2.99717 4.79839V4.68114C2.99717 4.01875 3.53611 3.47977 4.1983 3.47977H15.802C16.4642 3.47977 17.0031 4.01875 17.0031 4.68114L17.003 4.79839Z" fill="#E72727"/>
<path d="M7.09527 17.5306C7.3945 17.5306 7.63707 17.2879 7.63707 16.9888V10.8883C7.63707 10.5891 7.39446 10.3464 7.09527 10.3464C6.79607 10.3464 6.55347 10.5891 6.55347 10.8883V16.9888C6.55343 17.288 6.79603 17.5306 7.09527 17.5306Z" fill="#E72727"/>
<path d="M10.0001 17.5306C10.2993 17.5306 10.5419 17.2879 10.5419 16.9888V10.8883C10.5419 10.5891 10.2992 10.3464 10.0001 10.3464C9.70086 10.3464 9.45825 10.5891 9.45825 10.8883V16.9888C9.45825 17.288 9.70082 17.5306 10.0001 17.5306Z" fill="#E72727"/>
<path d="M12.9049 17.5306C13.2041 17.5306 13.4466 17.2879 13.4466 16.9888V10.8883C13.4466 10.5891 13.204 10.3464 12.9049 10.3464C12.6056 10.3464 12.363 10.5891 12.363 10.8883V16.9888C12.363 17.288 12.6057 17.5306 12.9049 17.5306Z" fill="#E72727"/>
</g>
<defs>
<clipPath id="clip0_22_41">
<rect width="20" height="20" fill="white"/>
</clipPath>
</defs>
</svg>
