<svg width="20" height="20" viewBox="0 0 20 20" fill="none" xmlns="http://www.w3.org/2000/svg">
<path d="M4.66471 0.267043H9.58333L7.23633 2.71984H4.66471C4.37446 2.72006 4.08712 2.77769 3.81924 2.88943C3.55135 3.00116 3.30822 3.16479 3.10384 3.37088C2.89774 3.57526 2.73412 3.8184 2.62238 4.08628C2.51065 4.35416 2.45301 4.6415 2.4528 4.93176V17.3243H14.8454C15.1357 17.3243 15.4231 17.2667 15.691 17.155C15.9589 17.0433 16.202 16.8795 16.4063 16.6733C16.6125 16.469 16.7762 16.2259 16.888 15.958C16.9997 15.6901 17.0573 15.4027 17.0573 15.1124V12.5815L19.5101 10.0196V15.1124C19.5093 15.724 19.388 16.3294 19.1532 16.8941C18.9183 17.4588 18.5744 17.9717 18.1413 18.4034V18.4116C17.2698 19.2847 16.0872 19.7759 14.8535 19.7771H1.87174C1.37697 19.7762 0.90279 19.5789 0.553385 19.2286C0.378629 19.055 0.239806 18.8486 0.144853 18.6213C0.0499001 18.3939 0.00067796 18.1501 0 17.9038L0 4.93176C0.000816546 4.32042 0.122129 3.71524 0.357001 3.15082C0.591874 2.5864 0.935698 2.07381 1.36882 1.64237L1.37695 1.62772C1.80834 1.19509 2.32072 0.851678 2.88484 0.617094C3.44896 0.38251 4.05376 0.261349 4.66471 0.260533V0.267043ZM11.8815 12.4464L7.0931 13.423L7.78483 8.32694L11.8815 12.4464ZM9.2985 6.78397L15.6738 0.148228C15.7422 0.0731796 15.8342 0.0237242 15.9345 0.00803871C16.0349 -0.00764676 16.1375 0.0113771 16.2256 0.0619648L19.8844 3.60363C19.9236 3.64226 19.9541 3.68875 19.9739 3.74003C19.9937 3.7913 20.0025 3.8462 19.9996 3.90111C19.9967 3.95602 19.9821 4.00968 19.957 4.05856C19.9318 4.10744 19.8965 4.15043 19.8535 4.18469L13.3919 10.9051L9.2985 6.78397Z" fill="white"/>
</svg>
