<svg width="30" height="28" viewBox="0 0 30 28" fill="none" xmlns="http://www.w3.org/2000/svg">
<g clip-path="url(#clip0_9_57)">
<path fill-rule="evenodd" clip-rule="evenodd" d="M12.9053 3.89648L11.5332 10.8716L10.1416 8.77441C7.14356 9.97803 5.46143 11.9629 5.2124 15.0171C2.75146 10.7129 4.24561 6.85547 7.36572 4.59473L5.94482 2.45605L12.9053 3.89648ZM18.4644 0H28.5693C28.9624 0 29.3213 0.161133 29.5801 0.419922C29.8389 0.678711 30 1.03516 30 1.43066V9.28711C30 9.68018 29.8389 10.0391 29.5801 10.2979C29.5508 10.3271 29.5215 10.354 29.4897 10.3784C29.2407 10.5884 28.9185 10.7178 28.5693 10.7178H18.4644C18.0713 10.7178 17.7124 10.5566 17.4536 10.2979C17.1948 10.0391 17.0337 9.68262 17.0337 9.28711V1.43066C17.0337 1.04004 17.1948 0.683594 17.4536 0.422363L17.4561 0.419922C17.7124 0.161133 18.0713 0 18.4644 0ZM1.43066 16.3257H11.5356C11.9287 16.3257 12.2876 16.4868 12.5464 16.7456C12.8052 17.0044 12.9663 17.3608 12.9663 17.7563V25.6128C12.9663 26.0059 12.8052 26.3647 12.5464 26.6235C12.5171 26.6528 12.4878 26.6797 12.4561 26.7041C12.207 26.9141 11.8848 27.0435 11.5356 27.0435H1.43066C1.0376 27.0435 0.678711 26.8823 0.419922 26.6235C0.161133 26.3647 0 26.0059 0 25.6103V17.7539C0 17.3608 0.161133 17.002 0.419922 16.7432C0.449219 16.7139 0.483398 16.6846 0.515137 16.6602C0.76416 16.4502 1.08398 16.3257 1.43066 16.3257ZM11.0474 18.2397H1.9165V25.1245H11.0498V18.2397H11.0474ZM28.0835 1.9165H18.9526V8.80127H28.0859V1.9165H28.0835ZM17.334 24.79L18.7061 17.8149L20.0977 19.9121C23.0957 18.7085 24.7778 16.7261 25.0293 13.6719C27.4902 17.9761 25.9961 21.8359 22.876 24.0942L24.2969 26.2329L17.334 24.79Z" fill="white"/>
</g>
<defs>
<clipPath id="clip0_9_57">
<rect width="30" height="27.041" fill="white"/>
</clipPath>
</defs>
</svg>
